Coordinates
version=1
nRows=65
nColumns=12
inDegrees=yes

Units are S.I. units (second, meters, Newtons, ...)
Angles are in degrees

endheader
time	SC_y	SC_z	SC_x	AC_y	AC_z	AC_x	GH_y	GH_z	GH_yy	EL_x	PS_y
       0.0              -52.38          24.62          70.02          68.32          6.881          16.74         -68.46          67.22         -4.009          52.04          83.48
   0.01262              -52.38          24.63          70.01          68.32          6.879          16.74         -68.46          67.21         -4.023          52.04          83.48
   0.02524              -52.38          24.63          70.01          68.31          6.876          16.73         -68.47           67.2         -4.037          52.04          83.49
   0.03786              -52.38          24.63           70.0          68.31          6.874          16.73         -68.47          67.19         -4.053          52.03          83.49
   0.05047              -52.38          24.63           70.0           68.3          6.871          16.72         -68.48          67.18         -4.069          52.03           83.5
   0.06309              -52.38          24.64          69.99           68.3          6.868          16.72         -68.48          67.16         -4.086          52.02           83.5
   0.07571              -52.38          24.64          69.99          68.29          6.865          16.71         -68.49          67.15         -4.105          52.02          83.51
   0.08833              -52.38          24.64          69.98          68.28          6.862           16.7          -68.5          67.14         -4.125          52.01          83.51
    0.1009              -52.38          24.64          69.97          68.27          6.858           16.7         -68.51          67.12         -4.146           52.0          83.52
    0.1136              -52.38          24.65          69.97          68.27          6.854          16.69         -68.51           67.1         -4.169           52.0          83.52
    0.1262              -52.38          24.65          69.96          68.26           6.85          16.68         -68.52          67.09         -4.193          51.99          83.53
    0.1388              -52.38          24.66          69.95          68.25          6.846          16.67         -68.53          67.07         -4.219          51.98          83.54
    0.1514              -52.38          24.66          69.94          68.24          6.841          16.66         -68.54          67.05         -4.248          51.98          83.55
     0.164              -52.37          24.67          69.93          68.23          6.836          16.65         -68.55          67.02         -4.278          51.97          83.56
    0.1767              -52.37          24.67          69.92          68.21          6.831          16.64         -68.57           67.0         -4.311          51.96          83.57
    0.1893              -52.37          24.68          69.91           68.2          6.825          16.63         -68.58          66.97         -4.347          51.95          83.58
    0.2019              -52.37          24.68           69.9          68.19          6.818          16.62         -68.59          66.94         -4.386          51.93          83.59
    0.2145              -52.37          24.69          69.89          68.17          6.811           16.6         -68.61          66.91         -4.429          51.92           83.6
    0.2271              -52.37           24.7          69.87          68.15          6.803          16.59         -68.63          66.88         -4.476          51.91          83.62
    0.2398              -52.37          24.71          69.86          68.13          6.795          16.57         -68.64          66.84         -4.526          51.89          83.63
    0.2524              -52.36          24.71          69.84          68.11          6.786          16.55         -68.67           66.8         -4.582          51.88          83.65
     0.265              -52.36          24.72          69.82          68.09          6.775          16.53         -68.69          66.75         -4.644          51.86          83.67
    0.2776              -52.36          24.73           69.8          68.07          6.764          16.51         -68.71           66.7         -4.712          51.84          83.69
    0.2902              -52.36          24.75          69.78          68.04          6.752          16.48         -68.74          66.65         -4.787          51.82          83.71
    0.3028              -52.35          24.76          69.75          68.01          6.738          16.45         -68.77          66.59         -4.871           51.8          83.73
    0.3155              -52.35          24.78          69.72          67.97          6.722          16.42          -68.8          66.52         -4.964          51.77          83.76
    0.3281              -52.35          24.79          69.69          67.93          6.705          16.39         -68.84          66.44         -5.068          51.74          83.79
    0.3407              -52.34          24.81          69.65          67.89          6.685          16.35         -68.89          66.35         -5.186           51.7          83.83
    0.3533              -52.34          24.83          69.61          67.84          6.663           16.3         -68.94          66.26         -5.319          51.67          83.87
    0.3659              -52.33          24.86          69.57          67.79          6.638          16.25         -68.99          66.15          -5.47          51.62          83.91
    0.3786              -52.33          24.88          69.51          67.72           6.61          16.19         -69.05          66.02         -5.642          51.57          83.96
    0.3912              -52.32          24.91          69.45          67.65          6.577          16.13         -69.13          65.87          -5.84          51.52          84.02
    0.4038              -52.31          24.95          69.38          67.57          6.539          16.05         -69.21          65.71         -6.068          51.45          84.09
    0.4164               -52.3          24.99           69.3          67.47          6.495          15.96         -69.31          65.51         -6.333          51.37          84.17
     0.429              -52.29          25.04          69.21          67.36          6.443          15.86         -69.42          65.28         -6.644          51.28          84.26
    0.4416              -52.28           25.1          69.09          67.22          6.383          15.73         -69.55          65.01         -7.009          51.18          84.37
    0.4543              -52.26          25.17          68.96          67.06           6.31          15.59         -69.71          64.69         -7.444          51.05           84.5
    0.4669              -52.25          25.25           68.8          66.87          6.224          15.41          -69.9          64.31         -7.965           50.9          84.66
    0.4795              -52.22          25.35          68.61          66.64          6.119           15.2         -70.14          63.85         -8.595          50.72          84.85
    0.4921               -52.2          25.48          68.37          66.35          5.991          14.94         -70.42          63.28         -9.366           50.5          85.08
    0.5047              -52.16          25.63          68.08           66.0          5.834          14.62         -70.77          62.58         -10.32          50.22          85.36
    0.5174              -52.12          25.82          67.71          65.57          5.637          14.22          -71.2          61.71          -11.5          49.88          85.71
      0.53              -52.07          26.06          67.25          65.02          5.389          13.72         -71.75          60.61         -12.99          49.45          86.16
    0.5426               -52.0          26.36          66.67          64.32          5.074          13.08         -72.44          59.21         -14.89           48.9          86.73
    0.5552              -51.92          26.74          65.92          63.43           4.67          12.26         -73.33          57.43         -17.32           48.2          87.45
    0.5678              -51.81          27.24          64.97          62.28          4.152          11.21         -74.47          55.13         -20.44           47.3          88.38
    0.5804              -51.67          27.88          63.74          60.82          3.491          9.866         -75.93           52.2         -24.42          46.15          89.57
    0.5931               -51.5          28.67           62.2          58.97           2.66          8.179         -77.77          48.52         -29.43           44.7          91.06
    0.6057              -51.28          29.65          60.33          56.73          1.646          6.123          -80.0          44.03         -35.53          42.94          92.89
    0.6183              -51.04          30.77          58.15          54.13         0.4719           3.74          -82.6          38.83          -42.6           40.9           95.0
    0.6309              -50.77           32.0           55.8          51.31        -0.7999           1.16          -85.4           33.2         -50.26          38.68          97.28
    0.6435               -50.5          33.22          53.45          48.49         -2.072         -1.421         -88.21          27.56         -57.92          36.47          99.57
    0.6562              -50.25          34.34          51.27          45.89         -3.246         -3.804          -90.8          22.36         -64.99          34.43          101.7
    0.6688              -50.04          35.32           49.4          43.65         -4.259         -5.859         -93.03          17.87         -71.09          32.66          103.5
    0.6814              -49.87          36.11          47.86           41.8         -5.091         -7.546         -94.87          14.19          -76.1          31.22          105.0
     0.694              -49.73          36.75          46.63          40.34         -5.752         -8.888         -96.33          11.26         -80.08          30.07          106.2
    0.7066              -49.62          37.25          45.67          39.19          -6.27         -9.938         -97.47          8.966          -83.2          29.17          107.1
    0.7193              -49.53          37.63          44.93           38.3         -6.673         -10.76         -98.36          7.179         -85.63          28.47          107.8
    0.7319              -49.47          37.94          44.34           37.6         -6.989          -11.4         -99.06          5.783         -87.53          27.92          108.4
    0.7445              -49.41          38.17          43.89          37.05         -7.236          -11.9          -99.6          4.684         -89.02          27.49          108.9
    0.7571              -49.37          38.36          43.52          36.62         -7.433          -12.3         -100.0          3.812          -90.2          27.14          109.2
    0.7697              -49.34          38.51          43.23          36.27         -7.591         -12.62         -100.4          3.113         -91.15          26.87          109.5
    0.7823              -49.31          38.64          42.99          35.98         -7.719         -12.88         -100.7          2.547         -91.92          26.65          109.7
     0.795              -49.29          38.74           42.8          35.75         -7.824         -13.09         -100.9          2.083         -92.55          26.46          109.9
    0.8076              -49.27          38.82          42.64          35.56          -7.91         -13.27         -101.1            1.7         -93.08          26.31          110.1
